<svg id="Calque_1" data-name="Calque 1" xmlns="http://www.w3.org/2000/svg" viewBox="0 0 43.62 43.62"><defs><style>.cls-1{stroke:#040506;stroke-width:0.06px;}</style></defs><g id="Layer_2" data-name="Layer 2"><g id="Icons"><path id="Tracé_5" data-name="Tracé 5" class="cls-1" d="M21.81,43.59A21.78,21.78,0,1,1,43.59,21.81,21.78,21.78,0,0,1,21.81,43.59Zm0-42.5A20.72,20.72,0,1,0,42.53,21.81h0A20.72,20.72,0,0,0,21.81,1.09Z"/><path id="Tracé_6" data-name="Tracé 6" d="M16,30.49H12V17.58h4ZM13.91,16h0a2.24,2.24,0,0,1-2.4-2.07c0-.05,0-.11,0-.17a2.47,2.47,0,0,1,4.89-.17c0,.06,0,.12,0,.17A2.26,2.26,0,0,1,14.1,16ZM32.15,30.5h-4.6V23.81c0-1.72-.71-2.94-2.3-2.94a2.3,2.3,0,0,0-2.18,1.58A3.1,3.1,0,0,0,23,23.5v7H18.48s.06-11.83,0-12.9H23v2c.27-.88,1.72-2.15,4-2.15,2.87,0,5.11,1.86,5.11,5.86Z"/></g></g></svg>