<svg id="Calque_1" data-name="Calque 1" xmlns="http://www.w3.org/2000/svg" viewBox="0 0 43.62 43.62"><defs><style>.cls-1{fill:#030405;}.cls-2{stroke:#040506;stroke-width:0.06px;}</style></defs><g id="Groupe_10920" data-name="Groupe 10920"><g id="Groupe_10919" data-name="Groupe 10919"><path id="Tracé_10088" data-name="Tracé 10088" class="cls-1" d="M27,10.57H16.65a6.09,6.09,0,0,0-6.08,6.09V27a6.09,6.09,0,0,0,6.08,6.09H27A6.09,6.09,0,0,0,33.05,27V16.66A6.09,6.09,0,0,0,27,10.57ZM31.74,27A4.79,4.79,0,0,1,27,31.74H16.65A4.77,4.77,0,0,1,11.89,27V16.66a4.76,4.76,0,0,1,4.76-4.77H27a4.78,4.78,0,0,1,4.77,4.77Z"/><path id="Tracé_10089" data-name="Tracé 10089" class="cls-1" d="M21.81,15.66A6.15,6.15,0,1,0,28,21.81,6.15,6.15,0,0,0,21.81,15.66Zm0,11a4.83,4.83,0,1,1,4.83-4.83A4.83,4.83,0,0,1,21.81,26.64Z"/><path id="Tracé_10090" data-name="Tracé 10090" class="cls-1" d="M28.1,13.48a1.82,1.82,0,1,0,1.82,1.82h0A1.82,1.82,0,0,0,28.1,13.48Zm0,2.32a.51.51,0,0,1-.5-.5.5.5,0,0,1,.5-.5.5.5,0,0,1,.5.5.5.5,0,0,1-.5.5Z"/></g><g id="Layer_2-2-2" data-name="Layer 2-2-2"><g id="Icons-3"><path id="Tracé_5-2" data-name="Tracé 5-2" class="cls-2" d="M21.81,43.59A21.78,21.78,0,1,1,43.59,21.81,21.78,21.78,0,0,1,21.81,43.59Zm0-42.5A20.72,20.72,0,1,0,42.53,21.81h0A20.72,20.72,0,0,0,21.81,1.09Z"/></g></g></g></svg>