<svg id="Calque_1" data-name="Calque 1" xmlns="http://www.w3.org/2000/svg" viewBox="0 0 43.62 43.62"><defs><style>.cls-1{stroke:#040506;stroke-width:0.06px;}</style></defs><g id="Layer_2-2" data-name="Layer 2-2"><g id="Icons-2"><path id="Tracé_1" data-name="Tracé 1" class="cls-1" d="M21.81,43.59A21.78,21.78,0,1,1,43.59,21.81h0A21.78,21.78,0,0,1,21.81,43.59Zm0-42.5A20.72,20.72,0,1,0,42.53,21.81h0A20.72,20.72,0,0,0,21.81,1.09Z"/><path id="Tracé_2" data-name="Tracé 2" d="M16.83,18.31h2.11V16.23a5.35,5.35,0,0,1,.69-3.2A3.8,3.8,0,0,1,23,11.48a13.34,13.34,0,0,1,3.83.38L26.26,15a7.33,7.33,0,0,0-1.73-.27c-.83,0-1.57.3-1.57,1.15v2.4h3.41l-.24,3.1H23V32.15h-4V21.4H16.82Z"/></g></g></svg>