<svg id="Calque_1" data-name="Calque 1" xmlns="http://www.w3.org/2000/svg" viewBox="0 0 41.06 41.06"><g id="Icons-2-2"><path id="Tracé_10073" data-name="Tracé 10073" d="M20.53,41.06A20.53,20.53,0,1,1,41.06,20.53h0A20.53,20.53,0,0,1,20.53,41.06ZM20.53,1A19.53,19.53,0,1,0,40.06,20.53h0A19.53,19.53,0,0,0,20.53,1Z"/><path id="Tracé_10074" data-name="Tracé 10074" d="M24,20.53,18.12,24V17.07Zm5.51,3.21V17.3a3.05,3.05,0,0,0-3-3.1H14.62a3,3,0,0,0-3.1,3v6.57a3,3,0,0,0,3,3.1H26.43a3,3,0,0,0,3.1-3v-.12"/></g></svg>