<?xml version="1.0" encoding="UTF-8"?>
<svg id="Calque_1" data-name="Calque 1" xmlns="http://www.w3.org/2000/svg" viewBox="0 0 559.17 99.09">
  <defs>
    <style>
      .cls-1, .cls-2 {
        stroke-width: 0px;
      }

      .cls-2 {
        fill: #fff;
      }
    </style>
  </defs>
  <g>
    <g>
      <polygon class="cls-1" points="100.17 0 86.82 0 71.29 29.25 86.82 58.5 100.17 58.5 84.65 29.25 100.17 0"/>
      <path class="cls-2" d="m0,0l29.67,55.9c.85,1.59,2.5,2.59,4.31,2.59h10.42L13.36,0H0Z"/>
      <path class="cls-2" d="m27.88,0l29.67,55.9c.85,1.59,2.5,2.59,4.31,2.59h10.42L41.24,0h-13.36Z"/>
    </g>
    <path class="cls-2" d="m429.9,58.5h11.11L420.32,0h-11.11l-20.68,58.5h11.11l3.96-11.19h22.35l3.96,11.19Zm-22.94-20.7l7.81-22.1,7.81,22.1h-15.63Z"/>
    <rect class="cls-2" x="216.24" y="23.75" width="58.5" height="10.99" transform="translate(274.74 -216.24) rotate(90)"/>
    <polygon class="cls-2" points="198.64 58.5 188.56 18.56 178.48 58.5 164.73 58.5 149.97 0 160.8 0 172.05 44.56 183.29 0 193.83 0 205.07 44.56 216.32 0 227.16 0 212.39 58.5 198.64 58.5"/>
    <path class="cls-2" d="m333.11,58.5V0h24.71c6.56,0,11.76,1.74,15.06,5.03,2.57,2.56,3.81,5.66,3.81,9.47v.17c0,5.41-2.34,9.24-7.37,12.05l-2.39,1.34,2.55.98c7.43,2.84,10.6,6.97,10.6,13.81v.17c0,9.83-7.86,15.47-21.57,15.47h-25.41Zm10.78-9.21h14.25c9.39,0,10.79-4.86,10.79-7.76v-.17c0-2.9-1.46-7.76-11.22-7.76h-13.82v15.69Zm0-24.9h10.68c9.06,0,10.96-4.08,10.96-7.5v-.17c0-4.76-3.68-7.5-10.09-7.5h-11.55v15.16Z"/>
    <polygon class="cls-2" points="304.55 58.5 279.33 18.01 279.33 58.5 268.34 58.5 268.34 0 279.52 0 304.74 40.48 304.74 0 315.73 0 315.73 58.5 304.55 58.5"/>
    <path class="cls-2" d="m489.19,40.08c-3.19,4.76-8.42,7.87-14.32,7.87-9.7,0-17.6-8.39-17.6-18.71s7.89-18.71,17.6-18.71c5.9,0,11.13,3.12,14.32,7.87l9.2-5.23C493.36,5.25,484.71,0,474.87,0c-15.54,0-28.14,13.09-28.14,29.25s12.6,29.25,28.14,29.25c9.83,0,18.48-5.25,23.52-13.19l-9.2-5.23Z"/>
    <g>
      <polygon class="cls-2" points="546.47 58.5 530.95 29.25 546.47 0 558.28 0 542.76 29.25 558.28 58.5 546.47 58.5"/>
      <rect class="cls-2" x="511.18" y="0" width="10.99" height="58.49"/>
    </g>
  </g>
  <g>
    <path class="cls-1" d="m439.41,98.85l-2-4.52h-9.08l-2.03,4.52h-2.36l7.94-17.56h2.03l7.94,17.56h-2.46Zm-2.91-6.59l-3.62-8.12-3.64,8.12h7.25Z"/>
    <path class="cls-1" d="m460.24,99.09c-2.72,0-4.97-.88-7.1-2.78l-.13-.11,1.42-1.68.13.12c1.86,1.68,3.53,2.37,5.74,2.37s3.63-1.12,3.63-2.73c0-1.46-.69-2.36-4.31-3.13-3.53-.77-5.87-1.93-5.87-5.1,0-2.85,2.43-4.88,5.79-4.88,2.42,0,4.25.64,6.11,2.14l.13.11-1.33,1.77-.14-.11c-1.52-1.24-3.05-1.82-4.82-1.82-2.04,0-3.46,1.06-3.46,2.59s.7,2.38,4.5,3.2c4,.87,5.7,2.37,5.7,5,0,3-2.47,5.06-6.01,5.06Z"/>
    <path class="cls-1" d="m485.38,99.09c-2.72,0-4.97-.88-7.1-2.78l-.13-.11,1.42-1.68.13.12c1.86,1.68,3.53,2.37,5.74,2.37s3.63-1.12,3.63-2.73c0-1.46-.69-2.36-4.31-3.13-3.53-.77-5.87-1.93-5.87-5.1,0-2.85,2.43-4.88,5.79-4.88,2.42,0,4.25.64,6.11,2.14l.13.11-1.33,1.77-.14-.11c-1.52-1.24-3.05-1.82-4.82-1.82-2.04,0-3.46,1.06-3.46,2.59s.7,2.38,4.5,3.2c4,.87,5.7,2.37,5.7,5,0,3-2.47,5.06-6.01,5.06Z"/>
    <rect class="cls-1" x="504.91" y="81.42" width="2.27" height="17.43"/>
    <path class="cls-1" d="m527.63,99.09c-2.72,0-4.97-.88-7.1-2.78l-.13-.11,1.42-1.68.13.12c1.86,1.68,3.53,2.37,5.74,2.37s3.63-1.12,3.63-2.73c0-1.46-.69-2.36-4.31-3.13-3.53-.77-5.87-1.93-5.87-5.1,0-2.85,2.43-4.88,5.79-4.88,2.42,0,4.25.64,6.11,2.14l.13.11-1.33,1.77-.14-.11c-1.52-1.24-3.05-1.82-4.82-1.82-2.04,0-3.47,1.06-3.47,2.59s.7,2.38,4.5,3.2c4,.87,5.7,2.37,5.7,5,0,3-2.47,5.06-6.01,5.06Z"/>
    <polygon class="cls-1" points="551.14 98.85 551.14 83.54 545.4 83.54 545.4 81.42 559.17 81.42 559.17 83.54 553.43 83.54 553.43 98.85 551.14 98.85"/>
  </g>
</svg>