<?xml version="1.0" encoding="UTF-8"?><svg id="Calque_1" xmlns="http://www.w3.org/2000/svg" viewBox="0 0 935.82 98.05"><defs><style>.cls-1{fill:#fff;}.cls-2{fill:#1d1d1b;}</style></defs><g><polygon class="cls-2" points="167.92 0 145.53 0 119.5 49.03 145.53 98.05 167.92 98.05 141.89 49.03 167.92 0"/><path class="cls-1" d="M0,0L49.74,93.71c1.42,2.67,4.2,4.34,7.22,4.34h17.47L22.39,0H0Z"/><path class="cls-1" d="M46.74,0l49.74,93.71c1.42,2.67,4.2,4.34,7.22,4.34h17.47L69.13,0h-22.39Z"/></g><path class="cls-1" d="M720.62,98.05h18.61L704.57,0h-18.61l-34.67,98.05h18.61l6.63-18.75h37.47l6.63,18.75Zm-38.46-34.69l13.1-37.04,13.1,37.04h-26.19Z"/><rect class="cls-1" x="362.47" y="39.81" width="98.05" height="18.43" transform="translate(460.53 -362.47) rotate(90)"/><polygon class="cls-1" points="332.97 98.05 316.07 31.11 299.18 98.05 276.13 98.05 251.38 0 269.54 0 288.39 74.69 307.25 0 324.9 0 343.76 74.69 362.61 0 380.77 0 356.02 98.05 332.97 98.05"/><path class="cls-1" d="M558.38,98.05V0h41.42c10.99,0,19.72,2.92,25.24,8.44,4.3,4.3,6.39,9.49,6.39,15.88v.29c0,9.06-3.93,15.48-12.35,20.2l-4,2.24,4.28,1.64c12.46,4.77,17.78,11.69,17.78,23.14v.29c0,16.48-13.18,25.93-36.16,25.93h-42.59Zm18.06-15.45h23.89c15.74,0,18.08-8.15,18.08-13v-.29c0-4.86-2.44-13-18.82-13h-23.16v26.3Zm0-41.74h17.9c15.19,0,18.38-6.83,18.38-12.56v-.29c0-7.99-6.16-12.57-16.91-12.57h-19.36v25.42Z"/><polygon class="cls-1" points="510.5 98.05 468.23 30.19 468.23 98.05 449.81 98.05 449.81 0 468.55 0 510.82 67.86 510.82 0 529.25 0 529.25 98.05 510.5 98.05"/><path class="cls-1" d="M820.01,67.18c-5.35,7.97-14.11,13.2-24,13.2-16.26,0-29.49-14.07-29.49-31.35s13.23-31.35,29.49-31.35c9.9,0,18.65,5.23,24,13.2l15.41-8.76C826.99,8.8,812.49,0,796.01,0c-26.05,0-47.17,21.95-47.17,49.03s21.12,49.03,47.17,49.03c16.48,0,30.98-8.8,39.42-22.11l-15.41-8.76Z"/><g><polygon class="cls-1" points="916.02 98.05 890 49.03 916.02 0 935.82 0 909.8 49.03 935.82 98.05 916.02 98.05"/><rect class="cls-1" x="856.86" y="0" width="18.42" height="98.05"/></g></svg>