<?xml version="1.0" encoding="UTF-8"?><svg id="Calque_1" xmlns="http://www.w3.org/2000/svg" viewBox="0 0 558.28 109.06"><defs><style>.cls-1{fill:#fff;}.cls-2{fill:#f18842;}</style></defs><g><path class="cls-1" d="m25.14,108.67v-23.11h9.87c2.59,0,4.69.72,6.08,2.07,1.01,1.05,1.52,2.32,1.52,3.79,0,2.9-1.64,4.44-3.21,5.27,2.97,1.04,4.47,2.89,4.47,5.51,0,4.02-3.24,6.47-8.45,6.47h-10.29Zm10.36-2.76c3.34,0,5.34-1.43,5.34-3.81s-2.06-3.72-5.79-3.72h-6.92v7.53h7.37Zm-.91-10.26c3.12,0,4.98-1.43,4.98-3.82,0-2.23-1.79-3.52-4.79-3.52h-6.66v7.34h6.47Z"/><polygon class="cls-1" points="53.35 108.67 53.35 85.56 70.18 85.56 70.18 88.35 56.36 88.35 56.36 95.62 68.72 95.62 68.72 98.41 56.36 98.41 56.36 105.88 70.34 105.88 70.34 108.67 53.35 108.67"/><polygon class="cls-1" points="85.86 108.67 85.86 88.38 78.26 88.38 78.26 85.56 96.51 85.56 96.51 88.38 88.91 88.38 88.91 108.67 85.86 108.67"/><polygon class="cls-1" points="111.68 108.67 111.68 88.38 104.08 88.38 104.08 85.56 122.33 85.56 122.33 88.38 114.72 88.38 114.72 108.67 111.68 108.67"/><polygon class="cls-1" points="131.51 108.67 131.51 85.56 148.34 85.56 148.34 88.35 134.52 88.35 134.52 95.62 146.88 95.62 146.88 98.41 134.52 98.41 134.52 105.88 148.5 105.88 148.5 108.67 131.51 108.67"/><path class="cls-1" d="m173.74,108.67l-6.57-8.8h-6.13v8.8h-3.01v-23.11h9.97c2.75,0,5.1.83,6.6,2.33,1.17,1.17,1.81,2.81,1.81,4.63,0,3.56-2.17,6.01-5.97,6.82l7.01,9.33h-3.71Zm-5.97-11.55c3.4,0,5.6-1.74,5.6-4.43s-2.08-4.3-5.56-4.3h-6.76v8.73h6.73Z"/><polygon class="cls-1" points="200.83 108.67 200.83 85.56 217.57 85.56 217.57 88.38 203.85 88.38 203.85 96.01 216.11 96.01 216.11 98.8 203.85 98.8 203.85 108.67 200.83 108.67"/><path class="cls-1" d="m242.74,108.67l-2.65-5.99h-12.03l-2.69,5.99h-3.12l10.53-23.27h2.69l10.53,23.27h-3.25Zm-3.86-8.77l-4.79-10.73-4.82,10.73h9.61Z"/><path class="cls-1" d="m262.27,108.99c-3.6,0-6.59-1.17-9.41-3.68l-.17-.15,1.88-2.23.18.16c2.47,2.23,4.67,3.14,7.61,3.14s4.82-1.49,4.82-3.62c0-1.93-.91-3.13-5.71-4.14-4.67-1.02-7.78-2.55-7.78-6.76,0-3.78,3.23-6.47,7.67-6.47,3.21,0,5.63.85,8.1,2.83l.17.14-1.77,2.34-.18-.15c-2.01-1.64-4.04-2.41-6.39-2.41-2.7,0-4.59,1.41-4.59,3.43s.92,3.16,5.96,4.24c5.3,1.15,7.56,3.14,7.56,6.63,0,3.97-3.27,6.7-7.96,6.7Z"/><polygon class="cls-1" points="285.33 108.67 285.33 88.38 277.73 88.38 277.73 85.56 295.98 85.56 295.98 88.38 288.38 88.38 288.38 108.67 285.33 108.67"/><polygon class="cls-1" points="305.16 108.67 305.16 85.56 321.99 85.56 321.99 88.35 308.18 88.35 308.18 95.62 320.54 95.62 320.54 98.41 308.18 98.41 308.18 105.88 322.15 105.88 322.15 108.67 305.16 108.67"/><path class="cls-1" d="m347.4,108.67l-6.57-8.8h-6.13v8.8h-3.01v-23.11h9.97c2.75,0,5.1.83,6.6,2.33,1.17,1.17,1.82,2.81,1.82,4.63,0,3.56-2.17,6.01-5.97,6.82l7.01,9.33h-3.71Zm-5.97-11.55c3.4,0,5.59-1.74,5.59-4.43s-2.08-4.3-5.56-4.3h-6.76v8.73h6.73Z"/><path class="cls-1" d="m385.23,109.06c-6.92,0-11.75-4.88-11.75-11.88s5.09-12.01,11.59-12.01c3.52,0,6.01.89,8.59,3.06l.18.15-1.95,2.29-.18-.15c-1.51-1.32-3.38-2.53-6.74-2.53-4.7,0-8.38,3.98-8.38,9.06,0,5.56,3.51,9.25,8.73,9.25,2.26,0,4.61-.8,6.31-2.15v-5.29h-6.89v-2.76h9.81v9.36l-.08.07c-1.47,1.31-4.63,3.52-9.24,3.52Z"/><polygon class="cls-1" points="404.71 108.67 404.71 85.56 421.54 85.56 421.54 88.35 407.72 88.35 407.72 95.62 420.08 95.62 420.08 98.41 407.72 98.41 407.72 105.88 421.7 105.88 421.7 108.67 404.71 108.67"/><polygon class="cls-1" points="448.46 108.67 434.18 90.53 434.18 108.67 431.23 108.67 431.23 85.56 433.97 85.56 447.89 103.28 447.89 85.56 450.84 85.56 450.84 108.67 448.46 108.67"/><polygon class="cls-1" points="467.63 108.67 467.63 88.38 460.02 88.38 460.02 85.56 478.28 85.56 478.28 88.38 470.67 88.38 470.67 108.67 467.63 108.67"/><polygon class="cls-1" points="487.46 108.67 487.46 85.56 490.47 85.56 490.47 105.85 503.22 105.85 503.22 108.67 487.46 108.67"/><polygon class="cls-1" points="512.33 108.67 512.33 85.56 529.16 85.56 529.16 88.35 515.35 88.35 515.35 95.62 527.71 95.62 527.71 98.41 515.35 98.41 515.35 105.88 529.33 105.88 529.33 108.67 512.33 108.67"/><path class="cls-1" d="m554.57,108.67l-6.57-8.8h-6.13v8.8h-3.01v-23.11h9.97c2.75,0,5.1.83,6.6,2.33,1.17,1.17,1.82,2.81,1.82,4.63,0,3.56-2.17,6.01-5.97,6.82l7.01,9.33h-3.71Zm-5.97-11.55c3.4,0,5.59-1.74,5.59-4.43s-2.08-4.3-5.56-4.3h-6.76v8.73h6.73Z"/></g><g><g><polygon class="cls-2" points="100.17 0 86.82 0 71.29 29.25 86.82 58.5 100.17 58.5 84.65 29.25 100.17 0"/><path class="cls-1" d="m0,0l29.67,55.9c.85,1.59,2.5,2.59,4.31,2.59h10.42L13.36,0H0Z"/><path class="cls-1" d="m27.88,0l29.67,55.9c.85,1.59,2.5,2.59,4.31,2.59h10.42L41.24,0h-13.36Z"/></g><path class="cls-1" d="m429.9,58.5h11.11L420.32,0h-11.11l-20.68,58.5h11.11l3.96-11.19h22.35l3.96,11.19Zm-22.94-20.7l7.81-22.1,7.81,22.1h-15.63Z"/><rect class="cls-1" x="216.24" y="23.75" width="58.5" height="10.99" transform="translate(274.74 -216.24) rotate(90)"/><polygon class="cls-1" points="198.64 58.5 188.56 18.56 178.48 58.5 164.73 58.5 149.97 0 160.8 0 172.05 44.56 183.29 0 193.83 0 205.07 44.56 216.32 0 227.16 0 212.39 58.5 198.64 58.5"/><path class="cls-1" d="m333.11,58.5V0h24.71c6.56,0,11.76,1.74,15.06,5.03,2.57,2.56,3.81,5.66,3.81,9.47v.17c0,5.41-2.34,9.24-7.37,12.05l-2.39,1.34,2.55.98c7.43,2.84,10.6,6.97,10.6,13.81v.17c0,9.83-7.86,15.47-21.57,15.47h-25.41Zm10.78-9.21h14.25c9.39,0,10.79-4.86,10.79-7.76v-.17c0-2.9-1.46-7.76-11.22-7.76h-13.82v15.69Zm0-24.9h10.68c9.06,0,10.96-4.08,10.96-7.5v-.17c0-4.76-3.68-7.5-10.09-7.5h-11.55v15.16Z"/><polygon class="cls-1" points="304.55 58.5 279.33 18.01 279.33 58.5 268.34 58.5 268.34 0 279.52 0 304.74 40.48 304.74 0 315.73 0 315.73 58.5 304.55 58.5"/><path class="cls-1" d="m489.19,40.08c-3.19,4.76-8.42,7.87-14.32,7.87-9.7,0-17.6-8.39-17.6-18.71s7.89-18.71,17.6-18.71c5.9,0,11.13,3.12,14.32,7.87l9.2-5.23C493.36,5.25,484.71,0,474.87,0c-15.54,0-28.14,13.09-28.14,29.25s12.6,29.25,28.14,29.25c9.83,0,18.48-5.25,23.52-13.19l-9.2-5.23Z"/><g><polygon class="cls-1" points="546.47 58.5 530.95 29.25 546.47 0 558.28 0 542.76 29.25 558.28 58.5 546.47 58.5"/><rect class="cls-1" x="511.18" y="0" width="10.99" height="58.49"/></g></g></svg>